<?xml version="1.0" ?><!DOCTYPE svg  PUBLIC '-//W3C//DTD SVG 1.1//EN'  'http://www.w3.org/Graphics/SVG/1.1/DTD/svg11.dtd'><svg enable-background="new 0 0 64 64" id="Layer_1" version="1.1" viewBox="0 0 64 64" xml:space="preserve" xmlns="http://www.w3.org/2000/svg" xmlns:xlink="http://www.w3.org/1999/xlink"><path d="M9,29V15c0-2.2,1.8-4,4-4h15c2.2,0,4,2,4,4h20c2.2,0,4,1.8,4,4v10" fill="#F8B319"/><path d="M56,50c0,2.2-1.8,4-4,4H13c-2.2,0-4-1.8-4-4V27c0-2.2,1.8-4,4-4h39c2.2,0,4,1.8,4,4V50z" fill="#FFD766"/><circle cx="50.2" cy="47" fill="#7ABE90" r="11.1"/><path d="M50.2,59.1C43.5,59.1,38,53.7,38,47s5.4-12.1,12.1-12.1S62.3,40.3,62.3,47S56.9,59.1,50.2,59.1z M50.2,36.9  C44.6,36.9,40,41.4,40,47s4.5,10.1,10.1,10.1S60.3,52.6,60.3,47S55.8,36.9,50.2,36.9z" fill="#2C3E50"/><path d="M38,55H13c-2.8,0-5-2.2-5-5V27c0-2.8,2.2-5,5-5h39c2.8,0,5,2.2,5,5v7c0,0.6-0.4,1-1,1s-1-0.4-1-1v-7  c0-1.7-1.3-3-3-3H13c-1.7,0-3,1.3-3,3v23c0,1.7,1.3,3,3,3h25c0.6,0,1,0.4,1,1S38.6,55,38,55z" fill="#2C3E50"/><path d="M56,22c-0.6,0-1-0.4-1-1v-2c0-1.7-1.3-3-3-3H32c-0.6,0-1-0.4-1-1c0-1.4-1.3-3-3-3H13c-1.7,0-3,1.3-3,3v6  c0,0.6-0.4,1-1,1s-1-0.4-1-1v-6c0-2.8,2.2-5,5-5h15c2.3,0,4.4,1.8,4.9,4H52c2.8,0,5,2.2,5,5v2C57,21.6,56.6,22,56,22z" fill="#2C3E50"/><path d="M49.7,51L49.7,51c-0.3,0-0.5-0.1-0.7-0.3l-3.3-3.3c-0.4-0.4-0.4-1,0-1.4c0.4-0.4,1-0.4,1.4,0l2.6,2.6  l4.6-4.7c0.4-0.4,1-0.4,1.4,0c0.4,0.4,0.4,1,0,1.4l-5.3,5.4C50.2,50.9,50,51,49.7,51z" fill="#2C3E50"/></svg>