<?xml version="1.0" ?><!DOCTYPE svg  PUBLIC '-//W3C//DTD SVG 1.1//EN'  'http://www.w3.org/Graphics/SVG/1.1/DTD/svg11.dtd'><svg enable-background="new 0 0 64 64" id="Layer_1" version="1.1" viewBox="0 0 64 64" xml:space="preserve" xmlns="http://www.w3.org/2000/svg" xmlns:xlink="http://www.w3.org/1999/xlink"><path d="M8,29V15c0-2.2,1.8-4,4-4h15c2.2,0,4,2,4,4h20c2.2,0,4,1.8,4,4v10" fill="#F8B319"/><path d="M55,41c0,2.2-8.8,13-11,13H12c-2.2,0-4-1.8-4-4V27c0-2.2,1.8-4,4-4h39c2.2,0,4,1.8,4,4V41z" fill="#FFD766"/><path d="M36,55H13c-2.8,0-5-2.2-5-5V27c0-2.8,2.2-5,5-5h39c2.8,0,5,2.2,5,5v7c0,0.6-0.4,1-1,1s-1-0.4-1-1v-7  c0-1.7-1.3-3-3-3H13c-1.7,0-3,1.3-3,3v23c0,1.7,1.3,3,3,3h23c0.6,0,1,0.4,1,1S36.6,55,36,55z" fill="#2C3E50"/><path d="M56,22c-0.6,0-1-0.4-1-1v-2c0-1.7-1.3-3-3-3H32c-0.6,0-1-0.4-1-1c0-1.4-1.3-3-3-3H13c-1.7,0-3,1.3-3,3v6  c0,0.6-0.4,1-1,1s-1-0.4-1-1v-6c0-2.8,2.2-5,5-5h15c2.3,0,4.4,1.8,4.9,4H52c2.8,0,5,2.2,5,5v2C57,21.6,56.6,22,56,22z" fill="#2C3E50"/><path d="M55.9,45.1c0-0.6,0-1.2,0-1.9l2-0.9c-0.3-1.6-1-3.2-2-4.5l-2,0.9c-0.4-0.5-0.9-0.9-1.3-1.3l0.8-2  c-0.7-0.5-1.4-0.8-2.2-1.2c-0.8-0.3-1.6-0.5-2.4-0.6l-0.8,2c-0.6,0-1.2,0-1.9,0l-0.9-2c-1.6,0.3-3.2,1-4.5,2l0.9,2  c-0.5,0.4-0.9,0.9-1.3,1.3l-2-0.8c-0.5,0.7-0.8,1.4-1.2,2.2c-0.3,0.8-0.5,1.6-0.6,2.4l2,0.8c0,0.6,0,1.2,0,1.9l-2,0.9  c0.3,1.6,1,3.2,2,4.5l2-0.9c0.4,0.5,0.9,0.9,1.3,1.3l-0.8,2c0.7,0.5,1.4,0.8,2.2,1.2s1.6,0.5,2.4,0.6l0.8-2c0.6,0,1.2,0,1.9,0l0.9,2  c1.6-0.3,3.2-1,4.5-2l-0.9-2c0.5-0.4,0.9-0.9,1.3-1.3l2,0.8c0.5-0.7,0.8-1.4,1.2-2.2c0.3-0.8,0.5-1.6,0.6-2.4L55.9,45.1z M52.5,45.3  c-0.5,2.9-3.2,4.9-6.2,4.4s-4.9-3.2-4.4-6.2c0.5-2.9,3.2-4.9,6.2-4.4C51,39.6,53,42.4,52.5,45.3z" fill="#969696"/><path d="M45.7,56.2c0,0-0.1,0-0.1,0c-0.9-0.1-1.8-0.4-2.6-0.7c-0.8-0.3-1.7-0.7-2.4-1.3c-0.4-0.3-0.5-0.8-0.4-1.2  l0.5-1.3c-0.1-0.1-0.3-0.3-0.4-0.4l-1.3,0.6c-0.4,0.2-0.9,0.1-1.2-0.3c-1.1-1.4-1.9-3.2-2.2-4.9c-0.1-0.5,0.1-0.9,0.6-1.1l1.3-0.6  c0-0.2,0-0.4,0-0.6l-1.3-0.5c-0.4-0.2-0.7-0.6-0.6-1.1c0.1-0.9,0.4-1.8,0.7-2.6c0.3-0.8,0.7-1.7,1.3-2.4c0.3-0.4,0.8-0.5,1.2-0.4  l1.3,0.5c0.1-0.1,0.3-0.3,0.4-0.4l-0.6-1.3c-0.2-0.4-0.1-0.9,0.3-1.2c1.4-1.1,3.2-1.9,4.9-2.2c0.5-0.1,0.9,0.1,1.1,0.6l0.6,1.3  c0.2,0,0.4,0,0.6,0l0.5-1.3c0.2-0.4,0.6-0.7,1.1-0.6c0.9,0.1,1.8,0.4,2.6,0.7c0.8,0.3,1.7,0.7,2.4,1.3c0.4,0.3,0.5,0.8,0.4,1.2  l-0.5,1.3c0.1,0.1,0.3,0.3,0.4,0.4l1.3-0.6c0.4-0.2,0.9-0.1,1.2,0.3c1.1,1.4,1.9,3.2,2.2,4.9c0.1,0.5-0.1,0.9-0.6,1.1l-1.3,0.6  c0,0.2,0,0.4,0,0.6l1.3,0.5c0.4,0.2,0.7,0.6,0.6,1.1c-0.1,0.9-0.4,1.8-0.7,2.6c-0.3,0.8-0.7,1.7-1.3,2.4c-0.3,0.4-0.8,0.5-1.2,0.4  L54.5,51c-0.1,0.1-0.3,0.3-0.4,0.4l0.6,1.3c0.2,0.4,0.1,0.9-0.3,1.2c-1.4,1.1-3.2,1.9-4.9,2.2c-0.5,0.1-0.9-0.2-1.1-0.6l-0.6-1.3  c-0.2,0-0.3,0-0.6,0l-0.5,1.3C46.5,55.9,46.1,56.2,45.7,56.2z M42.3,53c0.4,0.2,0.9,0.5,1.3,0.6c0.5,0.2,0.9,0.3,1.4,0.4l0.5-1.2  c0.2-0.4,0.5-0.7,1-0.6c0.6,0,1.1,0,1.6,0c0.4-0.1,0.9,0.2,1,0.6l0.5,1.2c1-0.3,1.9-0.7,2.7-1.2L52,51.5c-0.2-0.4-0.1-0.9,0.3-1.2  c0.4-0.4,0.8-0.8,1.1-1.2c0.3-0.4,0.7-0.5,1.2-0.3l1.2,0.5c0.2-0.4,0.5-0.9,0.6-1.3c0.2-0.5,0.3-0.9,0.4-1.4l-1.2-0.5  c-0.4-0.2-0.7-0.6-0.6-1c0-0.6,0-1.1,0-1.6c-0.1-0.4,0.2-0.9,0.6-1l1.2-0.5c-0.3-1-0.7-1.9-1.2-2.7l-1.2,0.5  c-0.4,0.2-0.9,0.1-1.2-0.3c-0.4-0.4-0.8-0.8-1.2-1.1c-0.4-0.3-0.5-0.7-0.3-1.2l0.5-1.2c-0.4-0.2-0.9-0.5-1.3-0.6  c-0.5-0.2-0.9-0.3-1.4-0.4l-0.5,1.2c-0.2,0.4-0.6,0.7-1,0.6c-0.6,0-1.1,0-1.6,0c-0.4,0.1-0.9-0.2-1-0.6l-0.5-1.2  c-1,0.3-1.9,0.7-2.7,1.2l0.5,1.2c0.2,0.4,0.1,0.9-0.3,1.2c-0.4,0.4-0.8,0.8-1.1,1.2c-0.3,0.4-0.7,0.5-1.2,0.3l-1.2-0.5  c-0.2,0.4-0.5,0.9-0.6,1.3c-0.2,0.5-0.3,0.9-0.4,1.4l1.2,0.5c0.4,0.2,0.7,0.6,0.6,1c0,0.6,0,1.1,0,1.6c0.1,0.4-0.2,0.9-0.6,1  l-1.2,0.5c0.3,1,0.7,1.9,1.2,2.7l1.2-0.5c0.4-0.2,0.9-0.1,1.2,0.3c0.4,0.4,0.8,0.8,1.2,1.1c0.4,0.3,0.5,0.7,0.3,1.2L42.3,53z" fill="#2C3E50"/><path d="M47.2,50.8c-0.3,0-0.7,0-1-0.1c-3.5-0.6-5.8-3.9-5.3-7.3c0.5-3.1,3.2-5.3,6.3-5.3c0.3,0,0.7,0,1,0.1  c3.5,0.6,5.8,3.9,5.3,7.3C53,48.6,50.3,50.8,47.2,50.8z M47.2,40.1c-2.1,0-4,1.5-4.3,3.7c-0.4,2.4,1.2,4.6,3.6,5  c0.2,0,0.5,0.1,0.7,0.1c2.1,0,4-1.5,4.3-3.7c0.4-2.4-1.2-4.6-3.6-5C47.6,40.1,47.4,40.1,47.2,40.1z" fill="#2C3E50"/></svg>